{
    "asset" : {
        "generator" : "Khronos glTF Blender I/O v1.0.5",
        "version" : "2.0"
    },
    "scene" : 0,
    "scenes" : [
        {
            "name" : "Scene",
            "nodes" : [
                0,
                1,
                2
            ]
        }
    ],
    "nodes" : [
        {
            "mesh" : 0,
            "name" : "Escenario"
        },
        {
            "mesh" : 1,
            "name" : "Locker"
        },
        {
            "mesh" : 2,
            "name" : "Plane"
        }
    ],
    "materials" : [
        {
            "doubleSided" : true,
            "name" : "Pantalla",
            "pbrMetallicRoughness" : {
                "baseColorFactor" : [
                    0.006370268762111664,
                    0.006370268762111664,
                    0.006370268762111664,
                    1
                ],
                "metallicFactor" : 0,
                "roughnessFactor" : 1
            }
        },
        {
            "doubleSided" : true,
            "name" : "Locker",
            "pbrMetallicRoughness" : {
                "baseColorTexture" : {
                    "index" : 0,
                    "texCoord" : 0
                },
                "metallicFactor" : 0,
                "metallicRoughnessTexture" : {
                    "index" : 1,
                    "texCoord" : 0
                }
            }
        },
        {
            "doubleSided" : true,
            "name" : "Background",
            "normalTexture" : {
                "index" : 2,
                "texCoord" : 0
            },
            "pbrMetallicRoughness" : {
                "baseColorTexture" : {
                    "index" : 3,
                    "texCoord" : 0
                },
                "metallicFactor" : 0,
                "roughnessFactor" : 0.699999988079071
            }
        }
    ],
    "meshes" : [
        {
            "name" : "Cylinder.002",
            "primitives" : [
                {
                    "attributes" : {
                        "POSITION" : 0,
                        "NORMAL" : 1,
                        "TEXCOORD_0" : 2
                    },
                    "indices" : 3,
                    "material" : 0
                }
            ]
        },
        {
            "name" : "Cube.001",
            "primitives" : [
                {
                    "attributes" : {
                        "POSITION" : 4,
                        "NORMAL" : 5,
                        "TEXCOORD_0" : 6
                    },
                    "indices" : 7,
                    "material" : 1
                }
            ]
        },
        {
            "name" : "Plane",
            "primitives" : [
                {
                    "attributes" : {
                        "POSITION" : 8,
                        "NORMAL" : 9,
                        "TEXCOORD_0" : 10
                    },
                    "indices" : 11,
                    "material" : 2
                }
            ]
        }
    ],
    "textures" : [
        {
            "source" : 0
        },
        {
            "source" : 1
        },
        {
            "source" : 2
        },
        {
            "source" : 3
        }
    ],
    "images" : [
        {
            "mimeType" : "image/png",
            "name" : "T_Locker",
            "uri" : "T_Locker.png"
        },
        {
            "mimeType" : "image/png",
            "name" : "S_Locker",
            "uri" : "S_Locker.png"
        },
        {
            "mimeType" : "image/png",
            "name" : "NM_Background",
            "uri" : "NM_Background.png"
        },
        {
            "mimeType" : "image/png",
            "name" : "T_Background",
            "uri" : "T_Background.png"
        }
    ],
    "accessors" : [
        {
            "bufferView" : 0,
            "componentType" : 5126,
            "count" : 4,
            "max" : [
                1.460593581199646,
                3.8605964183807373,
                -3.3999998569488525
            ],
            "min" : [
                -1.460593581199646,
                2.400003671646118,
                -3.4000279903411865
            ],
            "type" : "VEC3"
        },
        {
            "bufferView" : 1,
            "componentType" : 5126,
            "count" : 4,
            "type" : "VEC3"
        },
        {
            "bufferView" : 2,
            "componentType" : 5126,
            "count" : 4,
            "type" : "VEC2"
        },
        {
            "bufferView" : 3,
            "componentType" : 5123,
            "count" : 6,
            "type" : "SCALAR"
        },
        {
            "bufferView" : 4,
            "componentType" : 5126,
            "count" : 1276,
            "max" : [
                2.4106664657592773,
                2.25,
                -2.8499999046325684
            ],
            "min" : [
                -2.4073328971862793,
                0,
                -3.450000047683716
            ],
            "type" : "VEC3"
        },
        {
            "bufferView" : 5,
            "componentType" : 5126,
            "count" : 1276,
            "type" : "VEC3"
        },
        {
            "bufferView" : 6,
            "componentType" : 5126,
            "count" : 1276,
            "type" : "VEC2"
        },
        {
            "bufferView" : 7,
            "componentType" : 5123,
            "count" : 2052,
            "type" : "SCALAR"
        },
        {
            "bufferView" : 8,
            "componentType" : 5126,
            "count" : 8,
            "max" : [
                3,
                4.0106000900268555,
                0
            ],
            "min" : [
                -3,
                0,
                -3.5
            ],
            "type" : "VEC3"
        },
        {
            "bufferView" : 9,
            "componentType" : 5126,
            "count" : 8,
            "type" : "VEC3"
        },
        {
            "bufferView" : 10,
            "componentType" : 5126,
            "count" : 8,
            "type" : "VEC2"
        },
        {
            "bufferView" : 11,
            "componentType" : 5123,
            "count" : 12,
            "type" : "SCALAR"
        }
    ],
    "bufferViews" : [
        {
            "buffer" : 0,
            "byteLength" : 48,
            "byteOffset" : 0
        },
        {
            "buffer" : 0,
            "byteLength" : 48,
            "byteOffset" : 48
        },
        {
            "buffer" : 0,
            "byteLength" : 32,
            "byteOffset" : 96
        },
        {
            "buffer" : 0,
            "byteLength" : 12,
            "byteOffset" : 128
        },
        {
            "buffer" : 0,
            "byteLength" : 15312,
            "byteOffset" : 140
        },
        {
            "buffer" : 0,
            "byteLength" : 15312,
            "byteOffset" : 15452
        },
        {
            "buffer" : 0,
            "byteLength" : 10208,
            "byteOffset" : 30764
        },
        {
            "buffer" : 0,
            "byteLength" : 4104,
            "byteOffset" : 40972
        },
        {
            "buffer" : 0,
            "byteLength" : 96,
            "byteOffset" : 45076
        },
        {
            "buffer" : 0,
            "byteLength" : 96,
            "byteOffset" : 45172
        },
        {
            "buffer" : 0,
            "byteLength" : 64,
            "byteOffset" : 45268
        },
        {
            "buffer" : 0,
            "byteLength" : 24,
            "byteOffset" : 45332
        }
    ],
    "buffers" : [
        {
            "byteLength" : 45356,
            "uri" : "SM_LockerRoom.bin"
        }
    ]
}
