{
    "asset" : {
        "generator" : "Khronos glTF Blender I/O v1.0.5",
        "version" : "2.0"
    },
    "extensionsUsed" : [
        "KHR_lights_punctual"
    ],
    "extensionsRequired" : [
        "KHR_lights_punctual"
    ],
    "extensions" : {
        "KHR_lights_punctual" : {
            "lights" : [
                {
                    "color" : [
                        1,
                        1,
                        1
                    ],
                    "intensity" : 1000,
                    "type" : "point",
                    "name" : "Light"
                }
            ]
        }
    },
    "scene" : 0,
    "scenes" : [
        {
            "name" : "Scene",
            "nodes" : [
                1,
                3,
                4
            ]
        }
    ],
    "nodes" : [
        {
            "extensions" : {
                "KHR_lights_punctual" : {
                    "light" : 0
                }
            },
            "name" : "Light_Orientation",
            "rotation" : [
                -0.7071067690849304,
                0,
                0,
                0.7071067690849304
            ]
        },
        {
            "children" : [
                0
            ],
            "name" : "Light",
            "rotation" : [
                0.16907575726509094,
                0.7558803558349609,
                -0.27217137813568115,
                0.570947527885437
            ],
            "scale" : [
                -26.74960708618164,
                -60.32960510253906,
                -90.07959747314453
            ],
            "translation" : [
                0.007882349193096161,
                0.33173733949661255,
                -0.001064295182004571
            ]
        },
        {
            "camera" : 0,
            "name" : "Camera_Orientation",
            "rotation" : [
                -0.7071067690849304,
                0,
                0,
                0.7071067690849304
            ]
        },
        {
            "children" : [
                2
            ],
            "name" : "Camera",
            "rotation" : [
                0.483536034822464,
                0.33687159419059753,
                -0.20870360732078552,
                0.7804827094078064
            ],
            "scale" : [
                0.017865147441625595,
                0.017865147441625595,
                0.017865147441625595
            ],
            "translation" : [
                0.12456294894218445,
                0.0816841721534729,
                0.04009122774004936
            ]
        },
        {
            "extras" : {
                "mr displacement use global settings" : 1,
                "mr displacement view dependent" : 1,
                "mr displacement method" : 6,
                "mr displacement smoothing on" : 1,
                "mr displacement edge length" : 2,
                "mr displacement max displace" : 20,
                "mr displacement parametric subdivision level" : 5,
                "MaxHandle" : 5
            },
            "mesh" : 0,
            "name" : "Can",
            "scale" : [
                0.00037151286960579455,
                0.00045377472997643054,
                0.00037151286960579455
            ],
            "translation" : [
                0.0004498697817325592,
                -0.017035186290740967,
                -6.346611917251721e-05
            ]
        }
    ],
    "cameras" : [
        {
            "name" : "Camera",
            "perspective" : {
                "yfov" : 0.39959652046304894,
                "zfar" : 100,
                "znear" : 0.10000000149011612
            },
            "type" : "perspective"
        }
    ],
    "materials" : [
        {
            "doubleSided" : true,
            "name" : "02 - Default",
            "pbrMetallicRoughness" : {
                "baseColorFactor" : [
                    0.5882353186607361,
                    0.5882353186607361,
                    0.5882353186607361,
                    1
                ],
                "metallicFactor" : 1,
                "roughnessFactor" : 0.858578622341156
            }
        },
        {
            "doubleSided" : true,
            "name" : "01 - Default",
            "pbrMetallicRoughness" : {
                "baseColorTexture" : {
                    "index" : 0,
                    "texCoord" : 0
                },
                "metallicFactor" : 1,
                "roughnessFactor" : 0.858578622341156
            }
        }
    ],
    "meshes" : [
        {
            "name" : "Mesh",
            "primitives" : [
                {
                    "attributes" : {
                        "POSITION" : 0,
                        "NORMAL" : 1,
                        "TEXCOORD_0" : 2
                    },
                    "indices" : 3,
                    "material" : 0
                },
                {
                    "attributes" : {
                        "POSITION" : 4,
                        "NORMAL" : 5,
                        "TEXCOORD_0" : 6
                    },
                    "indices" : 7,
                    "material" : 1
                }
            ]
        }
    ],
    "textures" : [
        {
            "source" : 0
        }
    ],
    "images" : [
        {
            "bufferView" : 8,
            "mimeType" : "image/png",
            "name" : "Map #1-Map #1"
        }
    ],
    "accessors" : [
        {
            "bufferView" : 0,
            "componentType" : 5126,
            "count" : 3329,
            "max" : [
                51.0907096862793,
                144.6162872314453,
                51.08473205566406
            ],
            "min" : [
                -51.090721130371094,
                -6.052167892456055,
                -51.08473205566406
            ],
            "type" : "VEC3"
        },
        {
            "bufferView" : 1,
            "componentType" : 5126,
            "count" : 3329,
            "type" : "VEC3"
        },
        {
            "bufferView" : 2,
            "componentType" : 5126,
            "count" : 3329,
            "type" : "VEC2"
        },
        {
            "bufferView" : 3,
            "componentType" : 5123,
            "count" : 9024,
            "type" : "SCALAR"
        },
        {
            "bufferView" : 4,
            "componentType" : 5126,
            "count" : 331,
            "max" : [
                51.1519775390625,
                141.34295654296875,
                51.145992279052734
            ],
            "min" : [
                -51.1519889831543,
                5.274866104125977,
                -51.145992279052734
            ],
            "type" : "VEC3"
        },
        {
            "bufferView" : 5,
            "componentType" : 5126,
            "count" : 331,
            "type" : "VEC3"
        },
        {
            "bufferView" : 6,
            "componentType" : 5126,
            "count" : 331,
            "type" : "VEC2"
        },
        {
            "bufferView" : 7,
            "componentType" : 5123,
            "count" : 1512,
            "type" : "SCALAR"
        }
    ],
    "bufferViews" : [
        {
            "buffer" : 0,
            "byteLength" : 39948,
            "byteOffset" : 0
        },
        {
            "buffer" : 0,
            "byteLength" : 39948,
            "byteOffset" : 39948
        },
        {
            "buffer" : 0,
            "byteLength" : 26632,
            "byteOffset" : 79896
        },
        {
            "buffer" : 0,
            "byteLength" : 18048,
            "byteOffset" : 106528
        },
        {
            "buffer" : 0,
            "byteLength" : 3972,
            "byteOffset" : 124576
        },
        {
            "buffer" : 0,
            "byteLength" : 3972,
            "byteOffset" : 128548
        },
        {
            "buffer" : 0,
            "byteLength" : 2648,
            "byteOffset" : 132520
        },
        {
            "buffer" : 0,
            "byteLength" : 3024,
            "byteOffset" : 135168
        },
        {
            "buffer" : 0,
            "byteLength" : 2579352,
            "byteOffset" : 138192
        }
    ],
    "buffers" : [
        {
            "byteLength" : 2717544,
            "uri" : "data:application/octet-stream;base64,"
        }
    ]
}
