{
    "asset" : {
        "generator" : "Khronos glTF Blender I/O v1.0.5",
        "version" : "2.0"
    },
    "scene" : 0,
    "scenes" : [
        {
            "name" : "Scene",
            "nodes" : [
                0
            ]
        }
    ],
    "nodes" : [
        {
            "mesh" : 0,
            "name" : "Zapaton Iniesta"
        }
    ],
    "materials" : [
        {
            "doubleSided" : true,
            "name" : "Zapato Iniesta.001",
            "normalTexture" : {
                "index" : 0,
                "texCoord" : 0
            },
            "pbrMetallicRoughness" : {
                "baseColorTexture" : {
                    "index" : 1,
                    "texCoord" : 0
                },
                "metallicFactor" : 0,
                "roughnessFactor" : 0.699999988079071
            }
        }
    ],
    "meshes" : [
        {
            "name" : "Black Piece.002",
            "primitives" : [
                {
                    "attributes" : {
                        "POSITION" : 0,
                        "NORMAL" : 1,
                        "TEXCOORD_0" : 2
                    },
                    "indices" : 3,
                    "material" : 0
                }
            ]
        }
    ],
    "textures" : [
        {
            "source" : 0
        },
        {
            "source" : 1
        }
    ],
    "images" : [
        {
            "mimeType" : "image/png",
            "name" : "Zapato Iniesta_normal",
            "uri" : "Zapato Iniesta_normal.png"
        },
        {
            "mimeType" : "image/png",
            "name" : "Zapato Iniesta_diffuseOriginal",
            "uri" : "Zapato Iniesta_diffuseOriginal.png"
        }
    ],
    "accessors" : [
        {
            "bufferView" : 0,
            "componentType" : 5126,
            "count" : 11775,
            "max" : [
                0.04902053251862526,
                0.10654717683792114,
                0.12256020307540894
            ],
            "min" : [
                -0.042630843818187714,
                0.00028842687606811523,
                -0.12334620952606201
            ],
            "type" : "VEC3"
        },
        {
            "bufferView" : 1,
            "componentType" : 5126,
            "count" : 11775,
            "type" : "VEC3"
        },
        {
            "bufferView" : 2,
            "componentType" : 5126,
            "count" : 11775,
            "type" : "VEC2"
        },
        {
            "bufferView" : 3,
            "componentType" : 5123,
            "count" : 39540,
            "type" : "SCALAR"
        }
    ],
    "bufferViews" : [
        {
            "buffer" : 0,
            "byteLength" : 141300,
            "byteOffset" : 0
        },
        {
            "buffer" : 0,
            "byteLength" : 141300,
            "byteOffset" : 141300
        },
        {
            "buffer" : 0,
            "byteLength" : 94200,
            "byteOffset" : 282600
        },
        {
            "buffer" : 0,
            "byteLength" : 79080,
            "byteOffset" : 376800
        }
    ],
    "buffers" : [
        {
            "byteLength" : 455880,
            "uri" : "Zapato Iniesta.bin"
        }
    ]
}
