{
  "accessors": [
    {
      "bufferView": 2,
      "componentType": 5126,
      "count": 48,
      "max": [
        0.39630201458930969,
        0.93877601623535156,
        -0.38328900933265686
      ],
      "min": [
        -0.44766399264335632,
        -0.55787599086761475,
        -0.4030660092830658
      ],
      "type": "VEC3"
    },
    {
      "bufferView": 2,
      "byteOffset": 576,
      "componentType": 5126,
      "count": 48,
      "max": [
        1,
        1,
        1
      ],
      "min": [
        -1,
        -1,
        -1
      ],
      "type": "VEC3"
    },
    {
      "bufferView": 3,
      "componentType": 5126,
      "count": 48,
      "max": [
        0,
        0.58869731426239014,
        1,
        1
      ],
      "min": [
        -0.99999940395355225,
        -1,
        -0.96786564588546753,
        -1
      ],
      "type": "VEC4"
    },
    {
      "bufferView": 1,
      "componentType": 5126,
      "count": 48,
      "max": [
        0.98610800504684448,
        0.98472499847412109
      ],
      "min": [
        0.0068922601640224457,
        0.010924000293016434
      ],
      "type": "VEC2"
    },
    {
      "bufferView": 0,
      "componentType": 5125,
      "count": 72,
      "max": [
        47
      ],
      "min": [
        0
      ],
      "type": "SCALAR"
    },
    {
      "bufferView": 2,
      "byteOffset": 1152,
      "componentType": 5126,
      "count": 24100,
      "max": [
        0.47776800394058228,
        0.8971869945526123,
        0.40869298577308655
      ],
      "min": [
        -0.48282501101493835,
        -1,
        -0.41185900568962097
      ],
      "type": "VEC3"
    },
    {
      "bufferView": 2,
      "byteOffset": 290352,
      "componentType": 5126,
      "count": 24100,
      "max": [
        1,
        1,
        1
      ],
      "min": [
        -1,
        -1,
        -1
      ],
      "type": "VEC3"
    },
    {
      "bufferView": 3,
      "byteOffset": 768,
      "componentType": 5126,
      "count": 24100,
      "max": [
        1,
        1,
        1,
        1
      ],
      "min": [
        -1,
        -1,
        -1,
        -1
      ],
      "type": "VEC4"
    },
    {
      "bufferView": 1,
      "byteOffset": 384,
      "componentType": 5126,
      "count": 24100,
      "max": [
        0.99483299255371094,
        0.99409002065658569
      ],
      "min": [
        0.011586099863052368,
        0.0011090999469161034
      ],
      "type": "VEC2"
    },
    {
      "bufferView": 0,
      "byteOffset": 288,
      "componentType": 5125,
      "count": 41817,
      "max": [
        24099
      ],
      "min": [
        0
      ],
      "type": "SCALAR"
    },
    {
      "bufferView": 2,
      "byteOffset": 579552,
      "componentType": 5126,
      "count": 11434,
      "max": [
        0.49130898714065552,
        1,
        0.42877399921417236
      ],
      "min": [
        -0.49130898714065552,
        -0.80068200826644897,
        -0.42877399921417236
      ],
      "type": "VEC3"
    },
    {
      "bufferView": 2,
      "byteOffset": 716760,
      "componentType": 5126,
      "count": 11434,
      "max": [
        1,
        1,
        1
      ],
      "min": [
        -1,
        -1,
        -1
      ],
      "type": "VEC3"
    },
    {
      "bufferView": 3,
      "byteOffset": 386368,
      "componentType": 5126,
      "count": 11434,
      "max": [
        1,
        1,
        1,
        1
      ],
      "min": [
        -1,
        -0.99999332427978516,
        -1,
        -1
      ],
      "type": "VEC4"
    },
    {
      "bufferView": 1,
      "byteOffset": 193184,
      "componentType": 5126,
      "count": 11434,
      "max": [
        0.99611198902130127,
        0.99117398262023926
      ],
      "min": [
        0.0031597099732607603,
        0.0045637199655175209
      ],
      "type": "VEC2"
    },
    {
      "bufferView": 0,
      "byteOffset": 167556,
      "componentType": 5125,
      "count": 26514,
      "max": [
        11433
      ],
      "min": [
        0
      ],
      "type": "SCALAR"
    },
    {
      "bufferView": 2,
      "byteOffset": 853968,
      "componentType": 5126,
      "count": 65532,
      "max": [
        0.3649669885635376,
        0.8694000244140625,
        0.22494199872016907
      ],
      "min": [
        -0.17555700242519379,
        0.37803798913955688,
        -0.24825300276279449
      ],
      "type": "VEC3"
    },
    {
      "bufferView": 2,
      "byteOffset": 1640352,
      "componentType": 5126,
      "count": 65532,
      "max": [
        0.99848765134811401,
        0.99804836511611938,
        0.99859625101089478
      ],
      "min": [
        -0.99848759174346924,
        -0.99958562850952148,
        -0.99554711580276489
      ],
      "type": "VEC3"
    },
    {
      "bufferView": 3,
      "byteOffset": 569312,
      "componentType": 5126,
      "count": 65532,
      "max": [
        0.99965089559555054,
        0.99071991443634033,
        0.99850171804428101,
        1
      ],
      "min": [
        -0.9999692440032959,
        -0.99814921617507935,
        -0.99982935190200806,
        -1
      ],
      "type": "VEC4"
    },
    {
      "bufferView": 1,
      "byteOffset": 284656,
      "componentType": 5126,
      "count": 65532,
      "max": [
        0.98972499370574951,
        0.97438299655914307
      ],
      "min": [
        0,
        0
      ],
      "type": "VEC2"
    },
    {
      "bufferView": 0,
      "byteOffset": 273612,
      "componentType": 5125,
      "count": 250944,
      "max": [
        65531
      ],
      "min": [
        0
      ],
      "type": "SCALAR"
    },
    {
      "bufferView": 2,
      "byteOffset": 2426736,
      "componentType": 5126,
      "count": 65532,
      "max": [
        0.3649669885635376,
        0.48552298545837402,
        0.22494199872016907
      ],
      "min": [
        -0.17555700242519379,
        -0.17514500021934509,
        -0.24825300276279449
      ],
      "type": "VEC3"
    },
    {
      "bufferView": 2,
      "byteOffset": 3213120,
      "componentType": 5126,
      "count": 65532,
      "max": [
        0.99848765134811401,
        0.99804812669754028,
        0.99859625101089478
      ],
      "min": [
        -0.99848759174346924,
        -0.99958574771881104,
        -0.99554711580276489
      ],
      "type": "VEC3"
    },
    {
      "bufferView": 3,
      "byteOffset": 1617824,
      "componentType": 5126,
      "count": 65532,
      "max": [
        0.99965077638626099,
        0.99072080850601196,
        0.99800246953964233,
        1
      ],
      "min": [
        -0.99996930360794067,
        -0.99814856052398682,
        -0.99970817565917969,
        -1
      ],
      "type": "VEC4"
    },
    {
      "bufferView": 1,
      "byteOffset": 808912,
      "componentType": 5126,
      "count": 65532,
      "max": [
        0.98972499370574951,
        0.97210097312927246
      ],
      "min": [
        0,
        0
      ],
      "type": "VEC2"
    },
    {
      "bufferView": 0,
      "byteOffset": 1277388,
      "componentType": 5125,
      "count": 250920,
      "max": [
        65531
      ],
      "min": [
        0
      ],
      "type": "SCALAR"
    },
    {
      "bufferView": 2,
      "byteOffset": 3999504,
      "componentType": 5126,
      "count": 35525,
      "max": [
        0.37287598848342896,
        -0.049273401498794556,
        0.12881100177764893
      ],
      "min": [
        -0.18194299936294556,
        -0.41814601421356201,
        -0.24825300276279449
      ],
      "type": "VEC3"
    },
    {
      "bufferView": 2,
      "byteOffset": 4425804,
      "componentType": 5126,
      "count": 35525,
      "max": [
        0.99948036670684814,
        0.99804800748825073,
        0.99948912858963013
      ],
      "min": [
        -0.99948036670684814,
        -0.99958562850952148,
        -0.99997109174728394
      ],
      "type": "VEC3"
    },
    {
      "bufferView": 3,
      "byteOffset": 2666336,
      "componentType": 5126,
      "count": 35525,
      "max": [
        0.99994635581970215,
        0.99672394990921021,
        0.99951505661010742,
        1
      ],
      "min": [
        -0.99996906518936157,
        -0.99994367361068726,
        -0.99970805644989014,
        -1
      ],
      "type": "VEC4"
    },
    {
      "bufferView": 1,
      "byteOffset": 1333168,
      "componentType": 5126,
      "count": 35525,
      "max": [
        0.98972499370574951,
        0.99679702520370483
      ],
      "min": [
        0,
        0
      ],
      "type": "VEC2"
    },
    {
      "bufferView": 0,
      "byteOffset": 2281068,
      "componentType": 5125,
      "count": 154344,
      "max": [
        35524
      ],
      "min": [
        0
      ],
      "type": "SCALAR"
    },
    {
      "bufferView": 2,
      "byteOffset": 4852104,
      "componentType": 5126,
      "count": 5186,
      "max": [
        0.47839599847793579,
        0.94190299510955811,
        0.40469399094581604
      ],
      "min": [
        -0.47461900115013123,
        -0.96672797203063965,
        -0.41877898573875427
      ],
      "type": "VEC3"
    },
    {
      "bufferView": 2,
      "byteOffset": 4914336,
      "componentType": 5126,
      "count": 5186,
      "max": [
        1,
        1,
        1
      ],
      "min": [
        -1,
        -1,
        -1
      ],
      "type": "VEC3"
    },
    {
      "bufferView": 3,
      "byteOffset": 3234736,
      "componentType": 5126,
      "count": 5186,
      "max": [
        1,
        0.99999505281448364,
        1,
        1
      ],
      "min": [
        -1,
        -1,
        -1,
        -1
      ],
      "type": "VEC4"
    },
    {
      "bufferView": 1,
      "byteOffset": 1617368,
      "componentType": 5126,
      "count": 5186,
      "max": [
        0.98979699611663818,
        0.98974400758743286
      ],
      "min": [
        0.015387999825179577,
        0.01025640033185482
      ],
      "type": "VEC2"
    },
    {
      "bufferView": 0,
      "byteOffset": 2898444,
      "componentType": 5125,
      "count": 16878,
      "max": [
        5185
      ],
      "min": [
        0
      ],
      "type": "SCALAR"
    }
  ],
  "asset": {
    "extras": {
      "author": "RasenDan (https://sketchfab.com/RasenDan)",
      "license": "CC-BY-4.0 (http://creativecommons.org/licenses/by/4.0/)",
      "source": "https://sketchfab.com/3d-models/soda-vending-machine-f753a659faae499282e882d63972d4c2",
      "title": "Soda Vending Machine"
    },
    "generator": "Sketchfab-7.17.0",
    "version": "2.0"
  },
  "bufferViews": [
    {
      "buffer": 0,
      "byteLength": 2965956,
      "byteOffset": 0,
      "name": "floatBufferViews",
      "target": 34963
    },
    {
      "buffer": 0,
      "byteLength": 1658856,
      "byteOffset": 2965956,
      "byteStride": 8,
      "name": "floatBufferViews",
      "target": 34962
    },
    {
      "buffer": 0,
      "byteLength": 4976568,
      "byteOffset": 4624812,
      "byteStride": 12,
      "name": "floatBufferViews",
      "target": 34962
    },
    {
      "buffer": 0,
      "byteLength": 3317712,
      "byteOffset": 9601380,
      "byteStride": 16,
      "name": "floatBufferViews",
      "target": 34962
    }
  ],
  "buffers": [
    {
      "byteLength": 12919092,
      "uri": "scene.bin"
    }
  ],
  "images": [
    {
      "uri": "textures/body_baseColor.jpeg"
    },
    {
      "uri": "textures/body_metallicRoughness.png"
    },
    {
      "uri": "textures/body_emissive.jpeg"
    },
    {
      "uri": "textures/body_normal.png"
    },
    {
      "uri": "textures/drinks_baseColor.jpeg"
    },
    {
      "uri": "textures/drinks_metallicRoughness.png"
    },
    {
      "uri": "textures/drinks_normal.png"
    },
    {
      "uri": "textures/buttons_baseColor.jpeg"
    },
    {
      "uri": "textures/buttons_metallicRoughness.png"
    },
    {
      "uri": "textures/lambert1_baseColor.jpeg"
    },
    {
      "uri": "textures/lambert1_metallicRoughness.png"
    },
    {
      "uri": "textures/lambert1_emissive.jpeg"
    },
    {
      "uri": "textures/lambert1_normal.png"
    },
    {
      "uri": "textures/glass_baseColor.png"
    },
    {
      "uri": "textures/glass_metallicRoughness.png"
    },
    {
      "uri": "textures/glass_normal.png"
    }
  ],
  "materials": [
    {
      "doubleSided": true,
      "emissiveFactor": [
        1,
        1,
        1
      ],
      "emissiveTexture": {
        "index": 2,
        "texCoord": 0
      },
      "name": "body",
      "normalTexture": {
        "index": 3,
        "scale": 1,
        "texCoord": 0
      },
      "pbrMetallicRoughness": {
        "baseColorFactor": [
          1,
          1,
          1,
          1
        ],
        "baseColorTexture": {
          "index": 0,
          "texCoord": 0
        },
        "metallicFactor": 1,
        "metallicRoughnessTexture": {
          "index": 1,
          "texCoord": 0
        },
        "roughnessFactor": 1
      }
    },
    {
      "doubleSided": true,
      "name": "drinks",
      "normalTexture": {
        "index": 6,
        "scale": 1,
        "texCoord": 0
      },
      "pbrMetallicRoughness": {
        "baseColorFactor": [
          1,
          1,
          1,
          1
        ],
        "baseColorTexture": {
          "index": 4,
          "texCoord": 0
        },
        "metallicFactor": 1,
        "metallicRoughnessTexture": {
          "index": 5,
          "texCoord": 0
        },
        "roughnessFactor": 1
      }
    },
    {
      "doubleSided": true,
      "emissiveFactor": [
        0,
        0,
        0
      ],
      "name": "buttons",
      "pbrMetallicRoughness": {
        "baseColorFactor": [
          0.7578125,
          0.7578125,
          0.7578125,
          1
        ],
        "baseColorTexture": {
          "index": 7,
          "texCoord": 0
        },
        "metallicFactor": 1,
        "metallicRoughnessTexture": {
          "index": 8,
          "texCoord": 0
        },
        "roughnessFactor": 1
      }
    },
    {
      "doubleSided": true,
      "emissiveFactor": [
        1,
        1,
        1
      ],
      "emissiveTexture": {
        "index": 11,
        "texCoord": 0
      },
      "name": "lambert1",
      "normalTexture": {
        "index": 12,
        "scale": 1,
        "texCoord": 0
      },
      "pbrMetallicRoughness": {
        "baseColorFactor": [
          1,
          1,
          1,
          1
        ],
        "baseColorTexture": {
          "index": 9,
          "texCoord": 0
        },
        "metallicFactor": 1,
        "metallicRoughnessTexture": {
          "index": 10,
          "texCoord": 0
        },
        "roughnessFactor": 1
      }
    },
    {
      "alphaMode": "BLEND",
      "doubleSided": true,
      "name": "glass",
      "normalTexture": {
        "index": 15,
        "scale": 1,
        "texCoord": 0
      },
      "pbrMetallicRoughness": {
        "baseColorFactor": [
          1,
          1,
          1,
          1
        ],
        "baseColorTexture": {
          "index": 13,
          "texCoord": 0
        },
        "metallicFactor": 1,
        "metallicRoughnessTexture": {
          "index": 14,
          "texCoord": 0
        },
        "roughnessFactor": 1
      }
    }
  ],
  "meshes": [
    {
      "name": "defaultMaterial",
      "primitives": [
        {
          "attributes": {
            "NORMAL": 1,
            "POSITION": 0,
            "TANGENT": 2,
            "TEXCOORD_0": 3
          },
          "indices": 4,
          "material": 4,
          "mode": 4
        }
      ]
    },
    {
      "name": "defaultMaterial",
      "primitives": [
        {
          "attributes": {
            "NORMAL": 6,
            "POSITION": 5,
            "TANGENT": 7,
            "TEXCOORD_0": 8
          },
          "indices": 9,
          "material": 3,
          "mode": 4
        }
      ]
    },
    {
      "name": "defaultMaterial",
      "primitives": [
        {
          "attributes": {
            "NORMAL": 11,
            "POSITION": 10,
            "TANGENT": 12,
            "TEXCOORD_0": 13
          },
          "indices": 14,
          "material": 2,
          "mode": 4
        }
      ]
    },
    {
      "name": "defaultMaterial",
      "primitives": [
        {
          "attributes": {
            "NORMAL": 16,
            "POSITION": 15,
            "TANGENT": 17,
            "TEXCOORD_0": 18
          },
          "indices": 19,
          "material": 1,
          "mode": 4
        }
      ]
    },
    {
      "name": "defaultMaterial",
      "primitives": [
        {
          "attributes": {
            "NORMAL": 21,
            "POSITION": 20,
            "TANGENT": 22,
            "TEXCOORD_0": 23
          },
          "indices": 24,
          "material": 1,
          "mode": 4
        }
      ]
    },
    {
      "name": "defaultMaterial",
      "primitives": [
        {
          "attributes": {
            "NORMAL": 26,
            "POSITION": 25,
            "TANGENT": 27,
            "TEXCOORD_0": 28
          },
          "indices": 29,
          "material": 1,
          "mode": 4
        }
      ]
    },
    {
      "name": "defaultMaterial",
      "primitives": [
        {
          "attributes": {
            "NORMAL": 31,
            "POSITION": 30,
            "TANGENT": 32,
            "TEXCOORD_0": 33
          },
          "indices": 34,
          "material": 0,
          "mode": 4
        }
      ]
    }
  ],
  "nodes": [
    {
      "children": [
        1
      ],
      "name": "RootNode (gltf orientation matrix)",
      "rotation": [
        -0.70710678118654746,
        -0,
        -0,
        0.70710678118654757
      ]
    },
    {
      "children": [
        2
      ],
      "name": "RootNode (model correction matrix)"
    },
    {
      "children": [
        3,
        5,
        7,
        9,
        13
      ],
      "matrix": [
        1,
        0,
        0,
        0,
        0,
        -4.3711390063094768e-08,
        0.999999999999999,
        0,
        0,
        -0.999999999999999,
        -4.3711390063094768e-08,
        0,
        0,
        0,
        0,
        1
      ],
      "name": "Collada visual scene group"
    },
    {
      "children": [
        4
      ],
      "name": "glass1"
    },
    {
      "mesh": 0,
      "name": "defaultMaterial"
    },
    {
      "children": [
        6
      ],
      "name": "outside_stuf_mostly1"
    },
    {
      "mesh": 1,
      "name": "defaultMaterial"
    },
    {
      "children": [
        8
      ],
      "name": "other_outside_stuff1"
    },
    {
      "mesh": 2,
      "name": "defaultMaterial"
    },
    {
      "children": [
        10,
        11,
        12
      ],
      "name": "soda_can1:soda_can1:soda_can1:SODA_CANS"
    },
    {
      "mesh": 3,
      "name": "defaultMaterial"
    },
    {
      "mesh": 4,
      "name": "defaultMaterial"
    },
    {
      "mesh": 5,
      "name": "defaultMaterial"
    },
    {
      "children": [
        14
      ],
      "name": "sigh:LP_build"
    },
    {
      "mesh": 6,
      "name": "defaultMaterial"
    }
  ],
  "samplers": [
    {
      "magFilter": 9729,
      "minFilter": 9987,
      "wrapS": 10497,
      "wrapT": 10497
    }
  ],
  "scene": 0,
  "scenes": [
    {
      "name": "OSG_Scene",
      "nodes": [
        0
      ]
    }
  ],
  "textures": [
    {
      "sampler": 0,
      "source": 0
    },
    {
      "sampler": 0,
      "source": 1
    },
    {
      "sampler": 0,
      "source": 2
    },
    {
      "sampler": 0,
      "source": 3
    },
    {
      "sampler": 0,
      "source": 4
    },
    {
      "sampler": 0,
      "source": 5
    },
    {
      "sampler": 0,
      "source": 6
    },
    {
      "sampler": 0,
      "source": 7
    },
    {
      "sampler": 0,
      "source": 8
    },
    {
      "sampler": 0,
      "source": 9
    },
    {
      "sampler": 0,
      "source": 10
    },
    {
      "sampler": 0,
      "source": 11
    },
    {
      "sampler": 0,
      "source": 12
    },
    {
      "sampler": 0,
      "source": 13
    },
    {
      "sampler": 0,
      "source": 14
    },
    {
      "sampler": 0,
      "source": 15
    }
  ]
}

