{
    "asset" : {
        "generator" : "Khronos glTF Blender I/O v1.0.5",
        "version" : "2.0"
    },
    "scene" : 0,
    "scenes" : [
        {
            "name" : "Scene",
            "nodes" : [
                0
            ]
        }
    ],
    "nodes" : [
        {
            "mesh" : 0,
            "name" : "Botin de Oro Messi"
        }
    ],
    "materials" : [
        {
            "doubleSided" : true,
            "name" : "Botin",
            "normalTexture" : {
                "index" : 0,
                "texCoord" : 0
            },
            "pbrMetallicRoughness" : {
                "baseColorTexture" : {
                    "index" : 1,
                    "texCoord" : 0
                },
                "metallicFactor" : 0.699999988079071,
                "roughnessFactor" : 0.20000000298023224
            }
        }
    ],
    "meshes" : [
        {
            "name" : "Botin de Oro Messi",
            "primitives" : [
                {
                    "attributes" : {
                        "POSITION" : 0,
                        "NORMAL" : 1,
                        "TEXCOORD_0" : 2
                    },
                    "indices" : 3,
                    "material" : 0
                }
            ]
        }
    ],
    "textures" : [
        {
            "source" : 0
        },
        {
            "source" : 1
        }
    ],
    "images" : [
        {
            "mimeType" : "image/png",
            "name" : "NM_Bronze",
            "uri" : "NM_Bronze.png"
        },
        {
            "mimeType" : "image/png",
            "name" : "T_Bronze",
            "uri" : "T_Bronze.png"
        }
    ],
    "accessors" : [
        {
            "bufferView" : 0,
            "componentType" : 5126,
            "count" : 6024,
            "max" : [
                0.772672176361084,
                1.094591498374939,
                2.124967098236084
            ],
            "min" : [
                -0.7921608090400696,
                -1.7884840965270996,
                -2.161160707473755
            ],
            "type" : "VEC3"
        },
        {
            "bufferView" : 1,
            "componentType" : 5126,
            "count" : 6024,
            "type" : "VEC3"
        },
        {
            "bufferView" : 2,
            "componentType" : 5126,
            "count" : 6024,
            "type" : "VEC2"
        },
        {
            "bufferView" : 3,
            "componentType" : 5123,
            "count" : 23412,
            "type" : "SCALAR"
        }
    ],
    "bufferViews" : [
        {
            "buffer" : 0,
            "byteLength" : 72288,
            "byteOffset" : 0
        },
        {
            "buffer" : 0,
            "byteLength" : 72288,
            "byteOffset" : 72288
        },
        {
            "buffer" : 0,
            "byteLength" : 48192,
            "byteOffset" : 144576
        },
        {
            "buffer" : 0,
            "byteLength" : 46824,
            "byteOffset" : 192768
        }
    ],
    "buffers" : [
        {
            "byteLength" : 239592,
            "uri" : "Botin de Oro Test.bin"
        }
    ]
}
