{
    "asset" : {
        "generator" : "Khronos glTF Blender I/O v1.0.5",
        "version" : "2.0"
    },
    "scene" : 0,
    "scenes" : [
        {
            "name" : "Scene",
            "nodes" : [
                0,
                1
            ]
        }
    ],
    "nodes" : [
        {
            "mesh" : 0,
            "name" : "Pantalla",
            "translation" : [
                0,
                3.4661049842834473,
                -2.6344919204711914
            ]
        },
        {
            "mesh" : 1,
            "name" : "Escenario",
            "translation" : [
                0,
                1.3823225498199463,
                0
            ]
        }
    ],
    "materials" : [
        {
            "doubleSided" : true,
            "name" : "Material",
            "pbrMetallicRoughness" : {
                "baseColorFactor" : [
                    0,
                    0.8000000715255737,
                    0.010316037572920322,
                    1
                ],
                "metallicFactor" : 0,
                "roughnessFactor" : 1
            }
        },
        {
            "doubleSided" : true,
            "name" : "Escenario R",
            "pbrMetallicRoughness" : {
                "baseColorFactor" : [
                    0.8000000715255737,
                    0,
                    0.015294486656785011,
                    1
                ],
                "metallicFactor" : 0,
                "roughnessFactor" : 0.5
            }
        },
        {
            "doubleSided" : true,
            "name" : "Escenario B",
            "pbrMetallicRoughness" : {
                "baseColorFactor" : [
                    0.03487429395318031,
                    0,
                    0.8000000715255737,
                    1
                ],
                "metallicFactor" : 0,
                "roughnessFactor" : 0.5
            }
        },
        {
            "doubleSided" : true,
            "name" : "Escenario Floor",
            "pbrMetallicRoughness" : {
                "baseColorTexture" : {
                    "index" : 0,
                    "texCoord" : 0
                },
                "metallicFactor" : 0,
                "roughnessFactor" : 1
            }
        }
    ],
    "meshes" : [
        {
            "name" : "Pantalla",
            "primitives" : [
                {
                    "attributes" : {
                        "POSITION" : 0,
                        "NORMAL" : 1,
                        "TEXCOORD_0" : 2
                    },
                    "indices" : 3,
                    "material" : 0
                }
            ]
        },
        {
            "name" : "Escenario",
            "primitives" : [
                {
                    "attributes" : {
                        "POSITION" : 4,
                        "NORMAL" : 5,
                        "TEXCOORD_0" : 6
                    },
                    "indices" : 3,
                    "material" : 1
                },
                {
                    "attributes" : {
                        "POSITION" : 7,
                        "NORMAL" : 8,
                        "TEXCOORD_0" : 9
                    },
                    "indices" : 3,
                    "material" : 2
                },
                {
                    "attributes" : {
                        "POSITION" : 10,
                        "NORMAL" : 11,
                        "TEXCOORD_0" : 12
                    },
                    "indices" : 13,
                    "material" : 3
                }
            ]
        }
    ],
    "textures" : [
        {
            "source" : 0
        }
    ],
    "images" : [
        {
            "mimeType" : "image/png",
            "name" : "TexturesCom_Wood_ParquetStrip2_1K_albedo",
            "uri" : "TexturesCom_Wood_ParquetStrip2_1K_albedo.png"
        }
    ],
    "accessors" : [
        {
            "bufferView" : 0,
            "componentType" : 5126,
            "count" : 28,
            "max" : [
                15.228673934936523,
                25.661346435546875,
                -27.21030616760254
            ],
            "min" : [
                -15.228676795959473,
                13.496376991271973,
                -27.210338592529297
            ],
            "type" : "VEC3"
        },
        {
            "bufferView" : 1,
            "componentType" : 5126,
            "count" : 28,
            "type" : "VEC3"
        },
        {
            "bufferView" : 2,
            "componentType" : 5126,
            "count" : 28,
            "type" : "VEC2"
        },
        {
            "bufferView" : 3,
            "componentType" : 5123,
            "count" : 42,
            "type" : "SCALAR"
        },
        {
            "bufferView" : 4,
            "componentType" : 5126,
            "count" : 28,
            "max" : [
                32.098541259765625,
                29.936264038085938,
                -9.509861946105957
            ],
            "min" : [
                -34.075618743896484,
                -1.382322072982788,
                -37.47496795654297
            ],
            "type" : "VEC3"
        },
        {
            "bufferView" : 5,
            "componentType" : 5126,
            "count" : 28,
            "type" : "VEC3"
        },
        {
            "bufferView" : 6,
            "componentType" : 5126,
            "count" : 28,
            "type" : "VEC2"
        },
        {
            "bufferView" : 7,
            "componentType" : 5126,
            "count" : 28,
            "max" : [
                34.07563018798828,
                29.936264038085938,
                -9.50982666015625
            ],
            "min" : [
                -32.0985221862793,
                -1.382322072982788,
                -37.47496795654297
            ],
            "type" : "VEC3"
        },
        {
            "bufferView" : 8,
            "componentType" : 5126,
            "count" : 28,
            "type" : "VEC3"
        },
        {
            "bufferView" : 9,
            "componentType" : 5126,
            "count" : 28,
            "type" : "VEC2"
        },
        {
            "bufferView" : 10,
            "componentType" : 5126,
            "count" : 32,
            "max" : [
                34.74321365356445,
                -1.382322072982788,
                32.011451721191406
            ],
            "min" : [
                -34.74320983886719,
                -1.382322072982788,
                -37.47496795654297
            ],
            "type" : "VEC3"
        },
        {
            "bufferView" : 11,
            "componentType" : 5126,
            "count" : 32,
            "type" : "VEC3"
        },
        {
            "bufferView" : 12,
            "componentType" : 5126,
            "count" : 32,
            "type" : "VEC2"
        },
        {
            "bufferView" : 13,
            "componentType" : 5123,
            "count" : 90,
            "type" : "SCALAR"
        }
    ],
    "bufferViews" : [
        {
            "buffer" : 0,
            "byteLength" : 336,
            "byteOffset" : 0
        },
        {
            "buffer" : 0,
            "byteLength" : 336,
            "byteOffset" : 336
        },
        {
            "buffer" : 0,
            "byteLength" : 224,
            "byteOffset" : 672
        },
        {
            "buffer" : 0,
            "byteLength" : 84,
            "byteOffset" : 896
        },
        {
            "buffer" : 0,
            "byteLength" : 336,
            "byteOffset" : 980
        },
        {
            "buffer" : 0,
            "byteLength" : 336,
            "byteOffset" : 1316
        },
        {
            "buffer" : 0,
            "byteLength" : 224,
            "byteOffset" : 1652
        },
        {
            "buffer" : 0,
            "byteLength" : 336,
            "byteOffset" : 1876
        },
        {
            "buffer" : 0,
            "byteLength" : 336,
            "byteOffset" : 2212
        },
        {
            "buffer" : 0,
            "byteLength" : 224,
            "byteOffset" : 2548
        },
        {
            "buffer" : 0,
            "byteLength" : 384,
            "byteOffset" : 2772
        },
        {
            "buffer" : 0,
            "byteLength" : 384,
            "byteOffset" : 3156
        },
        {
            "buffer" : 0,
            "byteLength" : 256,
            "byteOffset" : 3540
        },
        {
            "buffer" : 0,
            "byteLength" : 180,
            "byteOffset" : 3796
        }
    ],
    "buffers" : [
        {
            "byteLength" : 3976,
            "uri" : "Escenario y Pantalla.bin"
        }
    ]
}
