{
    "asset" : {
        "generator" : "Khronos glTF Blender I/O v1.0.5",
        "version" : "2.0"
    },
    "scene" : 0,
    "scenes" : [
        {
            "name" : "Scene",
            "nodes" : [
                0,
                1
            ]
        }
    ],
    "nodes" : [
        {
            "mesh" : 0,
            "name" : "Botin de Oro Messi"
        },
        {
            "mesh" : 1,
            "name" : "Base"
        }
    ],
    "materials" : [
        {
            "doubleSided" : true,
            "name" : "Botin",
            "normalTexture" : {
                "index" : 0,
                "texCoord" : 0
            },
            "pbrMetallicRoughness" : {
                "baseColorTexture" : {
                    "index" : 1,
                    "texCoord" : 0
                },
                "metallicFactor" : 0.699999988079071,
                "roughnessFactor" : 0.5
            }
        },
        {
            "doubleSided" : true,
            "name" : "Base",
            "pbrMetallicRoughness" : {
                "baseColorTexture" : {
                    "index" : 2,
                    "texCoord" : 0
                },
                "metallicFactor" : 0,
                "roughnessFactor" : 0.800000011920929
            }
        }
    ],
    "meshes" : [
        {
            "name" : "Botin de Oro Messi",
            "primitives" : [
                {
                    "attributes" : {
                        "POSITION" : 0,
                        "NORMAL" : 1,
                        "TEXCOORD_0" : 2,
                        "TEXCOORD_1" : 3
                    },
                    "indices" : 4,
                    "material" : 0
                }
            ]
        },
        {
            "name" : "Base",
            "primitives" : [
                {
                    "attributes" : {
                        "POSITION" : 5,
                        "NORMAL" : 6,
                        "TEXCOORD_0" : 7
                    },
                    "indices" : 8,
                    "material" : 1
                }
            ]
        }
    ],
    "textures" : [
        {
            "source" : 0
        },
        {
            "source" : 1
        },
        {
            "source" : 2
        }
    ],
    "images" : [
        {
            "mimeType" : "image/png",
            "name" : "Botin de Oro_normal",
            "uri" : "Botin de Oro_normal.png"
        },
        {
            "mimeType" : "image/png",
            "name" : "Botin de Oro_diffuseOriginal",
            "uri" : "Botin de Oro_diffuseOriginal.png"
        },
        {
            "mimeType" : "image/png",
            "name" : "T_Marble",
            "uri" : "T_Marble.png"
        }
    ],
    "accessors" : [
        {
            "bufferView" : 0,
            "componentType" : 5126,
            "count" : 6030,
            "max" : [
                0.044462282210588455,
                0.17378531396389008,
                0.1089770570397377
            ],
            "min" : [
                -0.03192226216197014,
                0.025648795068264008,
                -0.10619378834962845
            ],
            "type" : "VEC3"
        },
        {
            "bufferView" : 1,
            "componentType" : 5126,
            "count" : 6030,
            "type" : "VEC3"
        },
        {
            "bufferView" : 2,
            "componentType" : 5126,
            "count" : 6030,
            "type" : "VEC2"
        },
        {
            "bufferView" : 3,
            "componentType" : 5126,
            "count" : 6030,
            "type" : "VEC2"
        },
        {
            "bufferView" : 4,
            "componentType" : 5123,
            "count" : 23412,
            "type" : "SCALAR"
        },
        {
            "bufferView" : 5,
            "componentType" : 5126,
            "count" : 116,
            "max" : [
                0.059583090245723724,
                0.030507780611515045,
                0.1259741634130478
            ],
            "min" : [
                -0.05958307534456253,
                0,
                -0.1259741485118866
            ],
            "type" : "VEC3"
        },
        {
            "bufferView" : 6,
            "componentType" : 5126,
            "count" : 116,
            "type" : "VEC3"
        },
        {
            "bufferView" : 7,
            "componentType" : 5126,
            "count" : 116,
            "type" : "VEC2"
        },
        {
            "bufferView" : 8,
            "componentType" : 5123,
            "count" : 252,
            "type" : "SCALAR"
        }
    ],
    "bufferViews" : [
        {
            "buffer" : 0,
            "byteLength" : 72360,
            "byteOffset" : 0
        },
        {
            "buffer" : 0,
            "byteLength" : 72360,
            "byteOffset" : 72360
        },
        {
            "buffer" : 0,
            "byteLength" : 48240,
            "byteOffset" : 144720
        },
        {
            "buffer" : 0,
            "byteLength" : 48240,
            "byteOffset" : 192960
        },
        {
            "buffer" : 0,
            "byteLength" : 46824,
            "byteOffset" : 241200
        },
        {
            "buffer" : 0,
            "byteLength" : 1392,
            "byteOffset" : 288024
        },
        {
            "buffer" : 0,
            "byteLength" : 1392,
            "byteOffset" : 289416
        },
        {
            "buffer" : 0,
            "byteLength" : 928,
            "byteOffset" : 290808
        },
        {
            "buffer" : 0,
            "byteLength" : 504,
            "byteOffset" : 291736
        }
    ],
    "buffers" : [
        {
            "byteLength" : 292240,
            "uri" : "Botin de Oro Messi.bin"
        }
    ]
}
