{
    "asset" : {
        "generator" : "Khronos glTF Blender I/O v1.0.5",
        "version" : "2.0"
    },
    "scene" : 0,
    "scenes" : [
        {
            "name" : "Scene",
            "nodes" : [
                0,
                1,
                2,
                3,
                4
            ]
        }
    ],
    "nodes" : [
        {
            "mesh" : 0,
            "name" : "Rotonda",
            "translation" : [
                0,
                1.3823225498199463,
                0
            ]
        },
        {
            "mesh" : 1,
            "name" : "Podio 03",
            "translation" : [
                0,
                1.3823230266571045,
                -12
            ]
        },
        {
            "mesh" : 2,
            "name" : "Podio 01",
            "translation" : [
                0,
                1.3823230266571045,
                12
            ]
        },
        {
            "mesh" : 3,
            "name" : "Podio 02",
            "translation" : [
                12,
                1.3823230266571045,
                0
            ]
        },
        {
            "mesh" : 4,
            "name" : "Podio 04",
            "translation" : [
                -12,
                1.3823230266571045,
                0
            ]
        }
    ],
    "materials" : [
        {
            "doubleSided" : true,
            "name" : "Rotonda",
            "pbrMetallicRoughness" : {
                "baseColorFactor" : [
                    0,
                    6.869160279165953e-05,
                    0.011087790131568909,
                    1
                ],
                "metallicFactor" : 0,
                "roughnessFactor" : 0.5
            }
        },
        {
            "doubleSided" : true,
            "name" : "Podio",
            "pbrMetallicRoughness" : {
                "baseColorFactor" : [
                    0.20791684091091156,
                    0.20791684091091156,
                    0.20791684091091156,
                    1
                ],
                "metallicFactor" : 0,
                "roughnessFactor" : 0.5
            }
        }
    ],
    "meshes" : [
        {
            "name" : "Rotonda",
            "primitives" : [
                {
                    "attributes" : {
                        "POSITION" : 0,
                        "NORMAL" : 1,
                        "TEXCOORD_0" : 2
                    },
                    "indices" : 3,
                    "material" : 0
                }
            ]
        },
        {
            "name" : "Podio 03",
            "primitives" : [
                {
                    "attributes" : {
                        "POSITION" : 4,
                        "NORMAL" : 5,
                        "TEXCOORD_0" : 6
                    },
                    "indices" : 7,
                    "material" : 1
                }
            ]
        },
        {
            "name" : "Podio 02",
            "primitives" : [
                {
                    "attributes" : {
                        "POSITION" : 8,
                        "NORMAL" : 9,
                        "TEXCOORD_0" : 10
                    },
                    "indices" : 7,
                    "material" : 1
                }
            ]
        },
        {
            "name" : "Podio 01.002",
            "primitives" : [
                {
                    "attributes" : {
                        "POSITION" : 11,
                        "NORMAL" : 12,
                        "TEXCOORD_0" : 13
                    },
                    "indices" : 7,
                    "material" : 1
                }
            ]
        },
        {
            "name" : "Podio 04.001",
            "primitives" : [
                {
                    "attributes" : {
                        "POSITION" : 14,
                        "NORMAL" : 15,
                        "TEXCOORD_0" : 16
                    },
                    "indices" : 7,
                    "material" : 1
                }
            ]
        }
    ],
    "accessors" : [
        {
            "bufferView" : 0,
            "componentType" : 5126,
            "count" : 130,
            "max" : [
                18.309999465942383,
                -0.3823227286338806,
                18.309999465942383
            ],
            "min" : [
                -18.309999465942383,
                -1.3823225498199463,
                -18.309999465942383
            ],
            "type" : "VEC3"
        },
        {
            "bufferView" : 1,
            "componentType" : 5126,
            "count" : 130,
            "type" : "VEC3"
        },
        {
            "bufferView" : 2,
            "componentType" : 5126,
            "count" : 130,
            "type" : "VEC2"
        },
        {
            "bufferView" : 3,
            "componentType" : 5123,
            "count" : 372,
            "type" : "SCALAR"
        },
        {
            "bufferView" : 4,
            "componentType" : 5126,
            "count" : 85,
            "max" : [
                3.605365753173828,
                3.6176769733428955,
                3.605365753173828
            ],
            "min" : [
                -3.605365753173828,
                -1.3823230266571045,
                -3.605365753173828
            ],
            "type" : "VEC3"
        },
        {
            "bufferView" : 5,
            "componentType" : 5126,
            "count" : 85,
            "type" : "VEC3"
        },
        {
            "bufferView" : 6,
            "componentType" : 5126,
            "count" : 85,
            "type" : "VEC2"
        },
        {
            "bufferView" : 7,
            "componentType" : 5123,
            "count" : 324,
            "type" : "SCALAR"
        },
        {
            "bufferView" : 8,
            "componentType" : 5126,
            "count" : 85,
            "max" : [
                3.605365753173828,
                3.6176769733428955,
                3.605365753173828
            ],
            "min" : [
                -3.605365753173828,
                -1.3823230266571045,
                -3.605365753173828
            ],
            "type" : "VEC3"
        },
        {
            "bufferView" : 9,
            "componentType" : 5126,
            "count" : 85,
            "type" : "VEC3"
        },
        {
            "bufferView" : 10,
            "componentType" : 5126,
            "count" : 85,
            "type" : "VEC2"
        },
        {
            "bufferView" : 11,
            "componentType" : 5126,
            "count" : 85,
            "max" : [
                3.605365753173828,
                3.6176769733428955,
                3.605365753173828
            ],
            "min" : [
                -3.605365753173828,
                -1.3823230266571045,
                -3.605365753173828
            ],
            "type" : "VEC3"
        },
        {
            "bufferView" : 12,
            "componentType" : 5126,
            "count" : 85,
            "type" : "VEC3"
        },
        {
            "bufferView" : 13,
            "componentType" : 5126,
            "count" : 85,
            "type" : "VEC2"
        },
        {
            "bufferView" : 14,
            "componentType" : 5126,
            "count" : 85,
            "max" : [
                3.605365753173828,
                3.6176769733428955,
                3.605365753173828
            ],
            "min" : [
                -3.605365753173828,
                -1.3823230266571045,
                -3.605365753173828
            ],
            "type" : "VEC3"
        },
        {
            "bufferView" : 15,
            "componentType" : 5126,
            "count" : 85,
            "type" : "VEC3"
        },
        {
            "bufferView" : 16,
            "componentType" : 5126,
            "count" : 85,
            "type" : "VEC2"
        }
    ],
    "bufferViews" : [
        {
            "buffer" : 0,
            "byteLength" : 1560,
            "byteOffset" : 0
        },
        {
            "buffer" : 0,
            "byteLength" : 1560,
            "byteOffset" : 1560
        },
        {
            "buffer" : 0,
            "byteLength" : 1040,
            "byteOffset" : 3120
        },
        {
            "buffer" : 0,
            "byteLength" : 744,
            "byteOffset" : 4160
        },
        {
            "buffer" : 0,
            "byteLength" : 1020,
            "byteOffset" : 4904
        },
        {
            "buffer" : 0,
            "byteLength" : 1020,
            "byteOffset" : 5924
        },
        {
            "buffer" : 0,
            "byteLength" : 680,
            "byteOffset" : 6944
        },
        {
            "buffer" : 0,
            "byteLength" : 648,
            "byteOffset" : 7624
        },
        {
            "buffer" : 0,
            "byteLength" : 1020,
            "byteOffset" : 8272
        },
        {
            "buffer" : 0,
            "byteLength" : 1020,
            "byteOffset" : 9292
        },
        {
            "buffer" : 0,
            "byteLength" : 680,
            "byteOffset" : 10312
        },
        {
            "buffer" : 0,
            "byteLength" : 1020,
            "byteOffset" : 10992
        },
        {
            "buffer" : 0,
            "byteLength" : 1020,
            "byteOffset" : 12012
        },
        {
            "buffer" : 0,
            "byteLength" : 680,
            "byteOffset" : 13032
        },
        {
            "buffer" : 0,
            "byteLength" : 1020,
            "byteOffset" : 13712
        },
        {
            "buffer" : 0,
            "byteLength" : 1020,
            "byteOffset" : 14732
        },
        {
            "buffer" : 0,
            "byteLength" : 680,
            "byteOffset" : 15752
        }
    ],
    "buffers" : [
        {
            "byteLength" : 16432,
            "uri" : "Rotonda y Podios.bin"
        }
    ]
}
